# xmcd CD database file
#
# Track frame offsets:
#	150
#	17348
#	38275
#	53681
#	73131
#	89023
#	106014
#	119961
#	133155
#	151021
#	166159
#	181196
#	203572
#	219350
#	236575
#	254787
#
# Disc length: 3555 seconds
#
# Revision: 5
# Processed by: cddbd v1.5.2PL0 Copyright (c) Steve Scherf et al.
# Submitted via: CDex 1.70beta2
#
DISCID=d30de110
DTITLE=Patricia Kaas - Sexe Fort
DYEAR=2003
DGENRE=Chanson française
TTITLE0=Où sont les hommes
TTITLE1=L'abbé Caillou
TTITLE2=Je ne peux plus te pardonner
TTITLE3=La nuit est mauve
TTITLE4=C'est les femmes qui mènent la danse
TTITLE5=On pourrait
TTITLE6=J'en tremblerai encore
TTITLE7=Je t'aime,  je ne t'aime plus
TTITLE8=C'est la faute à la vie
TTITLE9=Je le garde pour toi
TTITLE10=Ma blessure
TTITLE11=Des Regrets
TTITLE12=Tu pourras dire
TTITLE13=Peut-être que peut-être
TTITLE14=Une question de temps
TTITLE15=Je maudis
EXTD=YEAR: 2003
EXTT0=
EXTT1=
EXTT2=
EXTT3=
EXTT4=
EXTT5=
EXTT6=
EXTT7=
EXTT8=
EXTT9=
EXTT10=
EXTT11=
EXTT12=
EXTT13=
EXTT14=
EXTT15=
PLAYORDER=
